# xmcd
#
# Track frame offsets:
#	182
#	17532
#	33115
#	48612
#	64467
#	82700
#	96635
#	116282
#	131510
#	143812
#
# Disc length: 2124 seconds
#
# Revision: 4
# Processed by: cddbd v1.5.1PL2 Copyright (c) Steve Scherf et al.
# Submitted via: dBpowerAMP V4.0
#
DISCID=7f084a0a
DTITLE=Rhett Akins - A Thousand Memories
DYEAR=1995
DGENRE=Country
TTITLE0=Heart To Heart
TTITLE1=What They're Talkin' About
TTITLE2=Old Dirt Road
TTITLE3=She Said Yes
TTITLE4=That Ain't My Truck
TTITLE5=Katy Brought My Guitar Back Today
TTITLE6=A Thousand Memories
TTITLE7=I Brake For Brunettes
TTITLE8=Same Ol' Story
TTITLE9=Those Hands
EXTD=
EXTT0=
EXTT1=
EXTT2=
EXTT3=
EXTT4=
EXTT5=
EXTT6=
EXTT7=
EXTT8=
EXTT9=
PLAYORDER=
